<svg xmlns="http://www.w3.org/2000/svg" xml:space="preserve" viewBox="0 0 256 256"><path fill="#fff" d="M250.3 154.1a28.5 28.5 0 0 1 0-52.5 6.5 6.5 0 0 0 3.5-8.6l-12.3-29.6A6.5 6.5 0 0 0 233 60a28.5 28.5 0 0 1-37.2-37.2 6.5 6.5 0 0 0-3.5-8.5L162.7 1.9a6.5 6.5 0 0 0-8.5 3.5 28.5 28.5 0 0 1-52.6 0A6.5 6.5 0 0 0 93 2L63.4 14.2a6.5 6.5 0 0 0-3.5 8.5 28.5 28.5 0 0 1-37.2 37.2 6.5 6.5 0 0 0-8.5 3.5L1.9 93a6.5 6.5 0 0 0 3.5 8.6 28.5 28.5 0 0 1 0 52.5 6.5 6.5 0 0 0-3.5 8.6l12.3 29.6a6.5 6.5 0 0 0 8.5 3.5A28.5 28.5 0 0 1 59.9 233a6.5 6.5 0 0 0 3.5 8.5L93 253.8a6.5 6.5 0 0 0 8.6-3.5 28.5 28.5 0 0 1 52.5 0 6.5 6.5 0 0 0 8.6 3.5l29.6-12.3a6.5 6.5 0 0 0 3.5-8.5 28.5 28.5 0 0 1 37.2-37.2 6.5 6.5 0 0 0 8.5-3.5l12.3-29.6a6.5 6.5 0 0 0-3.5-8.6zm-122.4 27.3a53.5 53.5 0 1 1 0-107 53.5 53.5 0 0 1 0 107z"/></svg>